# xmcd CD database file
#
# Track frame offsets:
#	187
#	18955
#	35020
#	57000
#	76787
#	95552
#	120277
#	137100
#	153920
#	169000
#	185482
#	201412
#	217940
#	236017
#	258555
#
# Disc length: 3803 seconds
#
# Revision: 0
# Processed by: cddbd v1.5.1PL2 Copyright (c) Steve Scherf et al.
# Submitted via: CDex 1.40Beta9
#
DISCID=c30ed90f
DTITLE=Various Artist - '94 アニメ主題歌コレクション
DYEAR=1994
DGENRE=J-POP
TTITLE0=高橋由美子/Good-bye Tears
TTITLE1=a・chi-a・chi/エール
TTITLE2=a・chi-a・chi/永遠の扉
TTITLE3=SEIKA/時の記憶
TTITLE4=新居昭乃/三日月の寝台
TTITLE5=濱田理恵/夢のすみか
TTITLE6=笠原留美/フォーチュン・クエスト〜いつか叶う夢
TTITLE7=さいとうみわこ/迷いの森
TTITLE8=PURPLE/Black Diamond
TTITLE9=彩子/HEART TO HEART
TTITLE10=宇田川綾子/JUST FALLIN'LOVE〜幾つものせつない夜の中で
TTITLE11=山本正之/ヤッターマンの歌'93
TTITLE12=小原乃梨子・八奈見乗児/-さんあく18年- 君を離さない チュ☆
TTITLE13=乾和代/はじまりの予感
TTITLE14=西脇唯/風の大陸
EXTD=YEAR: 1994
EXTT0=
EXTT1=
EXTT2=
EXTT3=
EXTT4=
EXTT5=
EXTT6=
EXTT7=
EXTT8=
EXTT9=
EXTT10=
EXTT11=
EXTT12=
EXTT13=
EXTT14=
PLAYORDER=
